PathFileType	4	(X/Y/Z)	Patient4_TMGait_0pt8_01_left_05.trc.trc
DataRate	CameraRate	NumFrames	NumMarkers	Units	OrigDataRate	OrigDataStartFrame	OrigNumFrames
88.050314465409	88.050314465409	5	33	mm	88.050314465409	53	       141
Frame#	Time	Sacral			L.Shoulder			Chest			R.Shoulder			Neck			R.ASIS			L.ASIS			R.Thigh.Superior			R.Thigh.Lateral			R.Thigh.Inferior			R.Patella			L.Thigh.Superior			L.Thigh.Lateral			L.Thigh.Inferior			L.Patella			L.Shank.Superior			L.Shank.Lateral			L.Shank.Inferior			R.Shank.Superior			R.Shank.Lateral			R.Shank.Inferior			R.Heel			R.Midfoot.Superior			R.Midfoot.Lateral			R.Toe			L.Heel			L.Midfoot.Lateral			L.Midfoot.Superior			L.Toe			L.Elbow			L.Wrist			R.Elbow			R.Wrist			
		X1	Y1	Z1	X2	Y2	Z2	X3	Y3	Z3	X4	Y4	Z4	X5	Y5	Z5	X6	Y6	Z6	X7	Y7	Z7	X8	Y8	Z8	X9	Y9	Z9	X10	Y10	Z10	X11	Y11	Z11	X12	Y12	Z12	X13	Y13	Z13	X14	Y14	Z14	X15	Y15	Z15	X16	Y16	Z16	X17	Y17	Z17	X18	Y18	Z18	X19	Y19	Z19	X20	Y20	Z20	X21	Y21	Z21	X22	Y22	Z22	X23	Y23	Z23	X24	Y24	Z24	X25	Y25	Z25	X26	Y26	Z26	X27	Y27	Z27	X28	Y28	Z28	X29	Y29	Z29	X30	Y30	Z30	X31	Y31	Z31	X32	Y32	Z32	X33	Y33	Z33	

53	5.320571428571	813.440481469310	1009.973638633997	441.191369590876	996.503140664946	1435.435237613177	266.912524817497	1089.865892364209	1368.527946218847	435.055966428815	995.177686384804	1442.044324764647	603.964314529435	974.814907390268	1498.331491372990	423.112643068803	1035.614745105670	942.884582049088	565.013339796504	1034.396634387083	966.396972138233	290.949289891978	1113.467709391513	768.849796716851	550.613839019636	1061.873711711067	649.873500999708	623.464200091127	1158.943743534959	606.951947200120	555.793166856897	1171.077622700505	493.876684884171	580.153736851341	1074.375776190347	752.403026799876	316.910484065167	979.359460249214	637.903176491011	263.491614218529	1062.419345691371	558.369437937631	325.240154869865	1060.217512587203	490.702188342737	336.776106622498	1035.287426014817	419.501148500031	332.050525568897	945.612666834265	302.092155693689	287.540061346059	1001.788318425630	195.188968759382	362.390931534223	1093.054687837548	420.535535591727	578.096953744098	965.520426854852	384.692800477992	627.285346305458	952.461126838635	276.784088347336	576.002551802403	752.165314134435	216.476824419504	529.942121124286	918.108581024352	161.922722378585	585.325291683810	805.402639519733	157.038253403824	607.411562684210	981.772957853012	50.328391219086	615.652866109082	876.829972205555	38.472228647906	415.003804198112	949.000061230627	35.371918635469	332.331042377109	1032.240942003008	97.175527873754	356.486684723587	1160.028490252932	47.642508622194	326.738255219055	1010.304358629769	1087.873640306321	135.159525611093	1123.917986536641	852.545740730948	137.574600444189	955.607688388278	1094.918547797271	716.417897326988	1157.386622911458	941.944322738627	674.573101990666	
54	5.331928571429	812.121793286569	1010.131395683634	439.321580766317	998.078573335418	1435.501581363185	266.574147481900	1089.699582608200	1368.179184457620	435.490987023354	993.684131255805	1441.634739538273	603.686752148236	975.042567784545	1498.301649728016	422.731531338718	1033.522842603240	943.463305115743	564.927714158642	1034.829422621876	966.540235047301	290.607476585391	1114.328031952053	772.747218790114	549.894020358992	1066.138674898608	652.857966943458	623.313466344439	1163.594774374516	611.952892719566	554.978130813449	1179.018118593719	499.656241806892	579.729484642822	1071.745806762022	751.333364152846	318.014050566274	975.751607778090	637.821939603457	263.298931969195	1056.914885853426	557.336604859718	326.011523349034	1053.628221566932	489.826284514319	337.737278839683	1028.617552289681	418.914689778944	332.647035270697	938.724591781415	301.969269644655	287.447314380158	993.570939556239	194.793316933690	362.769560420082	1103.795685216796	423.925678527963	578.331088438205	978.259059574373	382.543806302867	628.106480533279	969.800718916568	273.919071247109	577.147864209143	772.385091371658	204.458671230872	531.946133384969	940.711382398754	157.844325121411	587.458374525934	828.322632755707	147.933861266076	609.691376636851	1009.106000404177	49.228121077719	617.826442778666	867.653575892657	38.447922655094	415.003868551773	939.865807378788	35.375648217139	332.344982674625	1023.153139438988	97.046159091830	356.667970742820	1150.956305300556	47.384468043935	326.772816656935	1020.454555748698	1089.903773947983	131.546893087024	1144.395507731839	859.722913636977	134.015725067156	943.929131773860	1095.032531859285	714.304160989784	1132.842132244102	923.589071885410	679.393313206626	
55	5.343285714286	810.870585692932	1010.139923602033	437.535201261997	999.754680335329	1435.472170010160	266.336829860313	1089.557268131493	1367.732159117001	436.047941066194	992.162042048753	1441.150325507681	603.472792629229	975.289932395376	1498.179807728155	422.442222178456	1031.455581207133	943.968563735648	565.045484019537	1035.362641895340	966.599229115693	290.433612818242	1114.892307796267	776.412545639657	549.278321383504	1069.946745553743	655.656723324671	623.111207530971	1167.590232386124	616.625069049352	554.039059925550	1186.233328683854	505.347966184201	579.195761124202	1069.126140527565	750.218432873889	319.241224283445	972.226345981271	637.683970412481	263.159677658111	1051.475417848430	556.308132956077	326.802258169891	1047.126842405199	488.948117206886	338.669311202456	1022.003570687343	418.301595697663	333.235575228357	931.859246261524	301.840354931949	287.381859871460	985.334832717765	194.375469964444	363.142574447079	1114.129031050741	427.196442302155	578.541986550792	991.075225316469	379.899079218535	629.052889604987	987.674417322731	270.708970895378	578.482313235582	793.835528380783	191.399838041122	534.295049882957	964.414835713607	153.534420381189	589.905450280096	852.600602005158	138.230605481936	612.351811703238	1037.842588854598	48.362785270569	620.444630024830	858.487404893121	38.433683701763	415.002387676022	930.739086087666	35.378551029581	332.363060161857	1014.081233417189	96.913403731596	356.852583246575	1141.906180531890	47.079922620574	326.819658399417	1030.162742118236	1092.092649194392	128.169693088995	1164.424062945159	867.629754725042	130.960782207710	932.915552086650	1095.170565243347	712.077812642552	1107.044638173413	906.421881190234	684.285641361049	
56	5.354642857143	809.709404301667	1010.007143516093	435.851506190799	1001.531239338697	1435.354835854678	266.208526247496	1089.446147424245	1367.200819074606	436.731662023893	990.617407555392	1440.601155135457	603.327562495427	975.557943744227	1497.975123406334	422.248203482929	1029.439396044365	944.379980597395	565.340052569632	1035.919108644395	966.567084683975	290.428210535730	1115.166914537484	779.769367022125	548.765345086226	1073.244028200155	658.202376815815	622.870358414196	1170.893575941846	620.868418784037	553.022692769327	1192.646677377844	510.859417836770	578.595776100672	1066.514500277732	749.063346126391	320.512667497053	968.724626843275	637.508896213390	263.059559631850	1046.051188094748	555.287908325126	327.564988038131	1040.665399963233	488.079249259622	339.529581702983	1015.395900814154	417.680425593528	333.784212320040	924.966857444456	301.716986465142	287.336123250895	977.057401293652	193.950415982276	363.496519323718	1123.970865960297	430.319900280029	578.739818667881	1003.931442554648	376.840529463571	630.116368540349	1005.995444406504	267.318621824030	579.970503101801	816.506832067789	177.687214665144	536.924553195708	989.074539240666	149.183796372295	592.543747562028	878.143784208263	128.232470281218	615.283529550973	1067.718398267401	47.929744855569	623.343016609536	849.335171785499	38.433959772365	414.995562630440	921.619255608689	35.381055315326	332.382734958655	1005.024457734630	96.782086678717	357.030310269880	1132.874572267037	46.737054001065	326.874290433934	1039.375382128071	1094.400048248150	125.035028351561	1183.906987848360	876.244769728785	128.416170149366	922.569988072566	1095.324992079295	709.797251817352	1080.194650931807	890.769727076906	689.150425844622	
57	5.366000000000	808.666037872259	1009.743483024578	434.289834117502	1003.396257289145	1435.159815530072	266.199868581494	1089.373166397885	1366.598802616744	437.542858206528	989.067403771659	1439.995380030628	603.258544479350	975.846381206377	1497.695733298987	422.155679091128	1027.504052295173	944.680769715912	565.779232029063	1036.421588204775	966.433458966640	290.589821916285	1115.156729793068	782.738674574022	548.357007113090	1075.970192853308	660.425665522178	622.612402817316	1173.475561502673	624.588705635186	551.992480222564	1198.185148580734	516.098635336975	577.979426297880	1063.913756108335	747.869120383479	321.752081806312	965.180305993934	637.319510216244	262.985006384233	1040.583866215008	554.278226142442	328.260590819956	1034.186930571486	487.231241027378	340.285057808890	1008.738063268768	417.073080112016	334.268091557072	917.995377643913	301.611468085487	287.302137956590	968.718525307199	193.535088230627	363.820504868415	1133.242054715546	433.271213404282	578.941095000873	1016.785280192549	373.450522764704	631.294250062705	1024.668227020474	263.908835489182	581.581119737020	840.364835037139	163.710473073756	539.768255143859	1014.543696356275	144.969778165689	595.264818845918	904.840326855624	118.226575738871	618.377056556057	1098.462567675402	48.084808741897	626.349288529720	840.198944817199	38.451681061749	414.981204126857	912.504676745503	35.383797323970	332.402212651440	995.980026756961	96.656725869444	357.192647094789	1123.855573992780	46.367856860632	326.932326637832	1048.055012635779	1096.785609541099	122.150081396805	1202.755760864934	885.543242178062	126.386339282179	912.862573140014	1095.513254614069	707.532485273591	1052.553691329879	876.929974789899	693.890712537288	
